<svg width="64" height="64" viewBox="0 0 64 64" fill="none" xmlns="http://www.w3.org/2000/svg">
<path d="M11 47C11 47.8285 11.6715 48.5 12.5 48.5C13.3285 48.5 14 47.8285 14 47C14 46.1715 13.3285 45.5 12.5 45.5C11.6715 45.5 11 46.1715 11 47Z" fill="#2D3963" stroke="#2D3963" stroke-width="2"/>
<path d="M17.5 57H7.49999C4.73849 57 2.5 54.7614 2.5 52V32.0001C2.5 29.2387 4.73849 27.0001 7.49999 27.0001H17.5C20.2614 27.0001 22.4999 29.2387 22.4999 32.0001V52C22.4999 54.7614 20.2614 57 17.5 57Z" stroke="#2D3963" stroke-width="2" stroke-miterlimit="10" stroke-linecap="round" stroke-linejoin="round"/>
<path d="M31.4999 28.9196C34.7826 22.8911 36.4999 17.2305 36.4999 8.97215V6.9999C42.0227 6.9999 46.4998 11.477 46.4998 16.9999V26.9998L56.4998 27.0001C59.2613 27.0001 61.4998 29.2386 61.4998 32.0001C61.4998 32.4684 61.4354 32.9219 61.3149 33.3518L56.2224 51.5278C55.3381 54.6848 52.4392 57 48.9998 57H31.4999" stroke="#2D3963" stroke-width="2" stroke-miterlimit="10" stroke-linecap="round" stroke-linejoin="round"/>
</svg>
