<svg width="64" height="64" viewBox="0 0 64 64" fill="none" xmlns="http://www.w3.org/2000/svg">
<mask id="mask0_0_366" style="mask-type:luminance" maskUnits="userSpaceOnUse" x="0" y="0" width="64" height="64">
<path d="M0 0.00018692H63.9998V64H0V0.00018692Z" fill="white"/>
</mask>
<g mask="url(#mask0_0_366)">
<path d="M22.1477 22.1479L13.7505 30.5452L5.35324 22.1479C3.20425 19.9989 1.875 17.03 1.875 13.7506C1.875 7.19211 7.19186 1.87513 13.7505 1.87513C20.3091 1.87513 25.6259 7.19211 25.6259 13.7506C25.6259 17.03 24.2967 19.9989 22.1477 22.1479Z" stroke="#2D3963" stroke-width="2" stroke-miterlimit="10"/>
<path d="M9.37524 13.751C9.37524 11.3346 11.3341 9.37575 13.7505 9.37575C16.1668 9.37575 18.1257 11.3346 18.1257 13.751C18.1257 16.1674 16.1668 18.1262 13.7505 18.1262C11.3341 18.1262 9.37524 16.1674 9.37524 13.751Z" stroke="#2D3963" stroke-width="2" stroke-miterlimit="10"/>
<path d="M48.2536 55.6103C46.7191 54.0757 45.8739 52.0351 45.8739 49.8646C45.8739 45.3841 49.519 41.7391 53.9993 41.7391C58.4797 41.7391 62.1248 45.3841 62.1248 49.8646C62.1248 52.035 61.2796 54.0756 59.745 55.6103L53.9993 61.356L48.2536 55.6103Z" stroke="#2D3963" stroke-width="2" stroke-miterlimit="10"/>
<path d="M23.6262 30.5451H30.9014C33.9925 30.5451 36.4984 33.051 36.4984 36.1421C36.4984 39.2332 33.9925 41.7392 30.9014 41.7392H23.9434C18.3141 41.7392 13.7506 46.3027 13.7506 51.932V51.9322C13.7506 57.5615 18.3141 62.125 23.9434 62.125H44.8751" stroke="#2D3963" stroke-width="2" stroke-miterlimit="10"/>
</g>
</svg>
