<svg width="40" height="40" viewBox="0 0 40 40" fill="none" xmlns="http://www.w3.org/2000/svg">
<path fill-rule="evenodd" clip-rule="evenodd" d="M40 20C40 8.95431 31.0457 0 20 0C8.9543 0 0 8.95431 0 20C0 31.0457 8.9543 40 20 40C31.0457 40 40 31.0457 40 20ZM31.9734 26.2059C32.0523 26.3284 32.1629 26.5419 32.2102 26.6803C32.3128 26.965 32.3563 27.4116 32.301 27.6686C32.2221 28.0442 31.9418 28.5146 31.1839 29.5345C30.726 30.1473 29.905 30.9893 29.5734 31.187C28.788 31.6455 28.1209 31.6179 26.5854 31.0605C23.9526 30.1038 21.4145 28.7043 18.9672 26.8661C14.2818 23.3477 10.8715 18.9162 8.58601 13.3659C8.29391 12.6582 8.24656 12.4289 8.27417 11.8755C8.30578 11.2034 8.51492 10.6935 9.05964 9.97402C9.66358 9.17941 11.0767 8.0409 11.8306 7.74835C12.5451 7.47157 13.1924 7.54277 13.6976 7.95387C13.9779 8.18717 15.3832 9.91078 15.9476 10.7172C16.3739 11.3299 16.962 12.2787 17.187 12.7136C17.4791 13.2868 17.5304 13.856 17.341 14.4135C17.191 14.8523 17.0607 14.9985 16.2554 15.6389C15.845 15.971 15.4739 16.2754 15.4384 16.3149C15.4029 16.3585 15.3239 16.4968 15.2647 16.6272C15.024 17.1451 15.17 17.8528 15.7463 19.0111C16.1924 19.9124 16.7568 20.7109 17.5857 21.6162C18.2884 22.3871 19.2041 23.1659 19.9185 23.6007C20.8382 24.1621 22.0342 24.589 22.6934 24.593C22.9776 24.593 23.3802 24.4783 23.5855 24.336C23.6684 24.2807 23.9803 23.9288 24.2842 23.5533C25.0381 22.6163 25.2749 22.4069 25.7249 22.2803C26.1433 22.1578 26.7078 22.2883 27.4696 22.6796C28.8038 23.3635 31.476 25.4548 31.9734 26.2059Z" fill="#2D3963"/>
</svg>
