<svg width="64" height="64" viewBox="0 0 64 64" fill="none" xmlns="http://www.w3.org/2000/svg">
<path d="M40.5584 44.443C40.5584 47.1669 38.3503 49.375 35.6264 49.375H28.2403C25.5164 49.375 23.3083 47.1669 23.3083 44.443M53.9334 61.5C53.9334 53.6086 49.4194 46.6376 42.8326 43.296C41.5804 42.6608 40.5584 43.049 40.5584 44.4531V53M23.3084 53V44.4531C23.3084 43.049 22.2864 42.6606 21.0341 43.296C15.8406 45.9846 11.5201 51.0651 10.1651 56.9046C9.61988 59.2545 11.4073 61.5 13.8196 61.5H43.9334M14.4334 17.75H49.6834M46.2146 16.9375C46.2146 8.96387 39.7508 2.5 31.7771 2.5C23.8035 2.5 17.3396 8.96387 17.3396 16.9375M18.1999 25.625C20.2173 31.1254 25.5315 35.25 31.7311 35.25C37.9589 35.25 43.3281 31.2896 45.3249 25.75" stroke="#2D3963" stroke-width="2" stroke-miterlimit="10" stroke-linecap="round" stroke-linejoin="round"/>
</svg>
